<svg width="30" height="30" viewBox="0 0 30 30" fill="none" xmlns="http://www.w3.org/2000/svg">
<circle cx="15" cy="15" r="15" fill="#5D8AC5"/>
<path d="M23.1938 6.3375C22.6313 5.49375 21.7876 4.9125 20.8126 4.66875L18.5813 4.10625C18.2626 4.03125 17.9251 3.99375 17.6063 3.99375H12.3938C12.0563 3.99375 11.7376 4.03125 11.4188 4.10625L9.18756 4.66875C8.21256 4.9125 7.36881 5.5125 6.80631 6.3375L4.03131 10.4813C3.84381 10.7438 3.78756 11.0813 3.84381 11.4C3.90006 11.7188 4.08756 12 4.36881 12.1688L5.94381 13.2188C6.15006 13.35 6.37506 13.425 6.61881 13.425C6.99381 13.425 7.33131 13.2563 7.57506 12.975L8.11881 12.3V23.8687C8.11881 24.5437 8.66256 25.0875 9.33756 25.0875H20.6626C21.3376 25.0875 21.8813 24.5437 21.8813 23.8687V12.3L22.4251 12.975C22.6501 13.2563 23.0063 13.425 23.3813 13.425C23.6251 13.425 23.8501 13.35 24.0563 13.2188L25.6313 12.1688C25.8938 11.9813 26.0813 11.7188 26.1563 11.4C26.2126 11.0813 26.1563 10.7625 25.9688 10.4813L23.1938 6.3375ZM17.6063 4.5375C17.6626 4.5375 17.7188 4.5375 17.7751 4.5375C17.6251 5.98125 16.4438 7.05 15.0001 7.05C13.5751 7.05 12.3751 5.9625 12.2251 4.55625C12.2813 4.55625 12.3376 4.55625 12.3938 4.55625H17.6063V4.5375ZM25.3126 11.7L23.7376 12.75C23.4563 12.9375 23.0626 12.8813 22.8563 12.6188L21.8063 11.325C21.7313 11.2313 21.6001 11.1938 21.4876 11.2313C21.3751 11.2688 21.3001 11.3813 21.3001 11.4938V23.85C21.3001 24.2062 21.0001 24.5062 20.6438 24.5062H9.33756C8.98131 24.5062 8.68131 24.2062 8.68131 23.85V11.5125C8.68131 11.4 8.60631 11.2875 8.49381 11.25C8.45631 11.2313 8.43756 11.2313 8.40006 11.2313C8.32506 11.2313 8.23131 11.2688 8.17506 11.3438L7.12506 12.6375C6.93756 12.8813 6.54381 12.9375 6.26256 12.75L4.68756 11.7C4.38756 11.4938 4.31256 11.1 4.50006 10.7813L7.27506 6.6375C7.76256 5.925 8.47506 5.4 9.31881 5.19375L11.5501 4.63125C11.5876 4.6125 11.6251 4.6125 11.6626 4.6125C11.8501 6.3 13.2751 7.6125 14.9813 7.6125C16.7063 7.6125 18.1313 6.3375 18.3188 4.63125C18.3563 4.63125 18.3938 4.65 18.4313 4.65L20.6626 5.2125C21.5063 5.41875 22.2188 5.925 22.7063 6.65625L25.5001 10.8C25.6876 11.1 25.6126 11.5125 25.3126 11.7Z" fill="white"/>
<path d="M19.7062 10.575H17.0437C16.8937 10.575 16.7625 10.7063 16.7625 10.8563C16.7625 11.0063 16.8937 11.1375 17.0437 11.1375H19.7062C19.8562 11.1375 19.9874 11.0063 19.9874 10.8563C19.9874 10.7063 19.8562 10.575 19.7062 10.575Z" fill="white"/>
</svg>
