<svg width="32" height="32" viewBox="0 0 32 32" fill="none" xmlns="http://www.w3.org/2000/svg">
<path d="M11.3846 19.4615C11.3846 21.4231 13.4615 22.9231 16 22.9231C18.5385 22.9231 20.6154 21.4231 20.6154 19.4615C20.6154 17.5 18.5385 16 16 16C13.4615 16 11.3846 14.5 11.3846 12.5385C11.3846 10.5769 13.4615 9.07692 16 9.07692C18.5385 9.07692 20.6154 10.5769 20.6154 12.5385" fill="#F69079"/>
<path d="M31 16C31 24.2843 24.2843 31 16 31C7.71573 31 1 24.2843 1 16C1 7.71573 7.71573 1 16 1C24.2843 1 31 7.71573 31 16Z" fill="#F69079"/>
<path d="M11.3846 19.4615C11.3846 21.4231 13.4615 22.9231 16 22.9231M16 22.9231C18.5385 22.9231 20.6154 21.4231 20.6154 19.4615C20.6154 17.5 18.5385 16 16 16C13.4615 16 11.3846 14.5 11.3846 12.5385C11.3846 10.5769 13.4615 9.07692 16 9.07692M16 22.9231V25.2308M16 9.07692C18.5385 9.07692 20.6154 10.5769 20.6154 12.5385M16 9.07692V6.76923M31 16C31 24.2843 24.2843 31 16 31C7.71573 31 1 24.2843 1 16C1 7.71573 7.71573 1 16 1C24.2843 1 31 7.71573 31 16Z" stroke="white" stroke-width="1.5" stroke-linecap="round" stroke-linejoin="round"/>
</svg>
