<svg width="30" height="30" viewBox="0 0 30 30" fill="none" xmlns="http://www.w3.org/2000/svg">
<circle cx="15" cy="15" r="15" fill="#03A863"/>
<path d="M3 12.5454L8.22966 6.26985C8.37216 6.09886 8.58324 5.99999 8.80583 5.99999L12.8182 5.99999M3 12.5454L15 25.6364M3 12.5454L10.6364 12.5454M15 25.6364L27 12.5454M15 25.6364L10.6364 12.5454M15 25.6364L19.3636 12.5454M27 12.5454L21.7703 6.26985C21.6278 6.09886 21.4168 5.99999 21.1942 5.99999L17.1818 5.99999M27 12.5454L19.3636 12.5454M12.8182 5.99999L17.1818 5.99999M12.8182 5.99999L10.6364 12.5454M17.1818 5.99999L19.3636 12.5454M10.6364 12.5454L19.3636 12.5454" stroke="white" stroke-width="1.5" stroke-linecap="round" stroke-linejoin="round"/>
</svg>
