<svg width="30" height="30" viewBox="0 0 30 30" fill="none" xmlns="http://www.w3.org/2000/svg">
<circle cx="15" cy="15" r="15" fill="#F69079"/>
<path d="M4.6875 6.5625H7.5L7.93269 10.3125M7.93269 10.3125L9.375 19.6875H21.5625L23.4375 10.3125H7.93269Z" stroke="white" stroke-width="1.5" stroke-linecap="round" stroke-linejoin="round"/>
<path d="M11.25 23.4375L11.2598 23.4375" stroke="white" stroke-width="2.25" stroke-linecap="round" stroke-linejoin="round"/>
<path d="M18.75 23.4375L18.7598 23.4375" stroke="white" stroke-width="2.25" stroke-linecap="round" stroke-linejoin="round"/>
<circle cx="15" cy="15" r="15" fill="#C081B8"/>
<path d="M18.8576 9V9.75C18.8576 11.8211 17.1786 13.5 15.1076 13.5C13.0365 13.5 11.3576 11.8211 11.3576 9.75V9M8.50012 22.5H21.715C22.5971 22.5 23.2887 21.7426 23.2089 20.8642L21.9816 7.3642C21.9114 6.59158 21.2636 6 20.4878 6H9.72739C8.95159 6 8.30379 6.59158 8.23355 7.3642L7.00628 20.8642C6.92643 21.7426 7.61807 22.5 8.50012 22.5Z" stroke="white" stroke-width="1.5" stroke-linecap="round" stroke-linejoin="round"/>
</svg>
