<svg width="30" height="30" viewBox="0 0 30 30" fill="none" xmlns="http://www.w3.org/2000/svg">
<circle cx="15" cy="15" r="15" fill="#EF1D26"/>
<path d="M9.09082 6.36364V11.8182L11.3635 14.0909C11.3635 14.0909 11.1363 16.6827 11.1363 19.0909C11.1363 21.4991 11.3635 25 11.3635 25H12.2726C12.2726 25 12.4999 21.4809 12.4999 19.0909C12.4999 16.7009 12.2726 14.0909 12.2726 14.0909L14.5454 11.8182V6.36364L13.6363 5V11.3745L11.8181 13.1073L10.0017 11.3745V5L9.09082 6.36364Z" fill="white"/>
<path d="M20.9091 11.74C20.9091 10.8336 20.4546 5 18.1818 5C15.9091 5 15.4546 10.8336 15.4546 11.74C15.4546 13.5536 17.7273 14.12 17.7273 14.12C17.7273 14.12 17.5 16.84 17.5 19.1064C17.5 21.3736 17.7273 25 17.7273 25H18.6364C18.6364 25 18.8637 21.4745 18.8637 19.1064C18.8637 16.7391 18.6364 14.12 18.6364 14.12C18.6364 14.12 20.9091 13.5536 20.9091 11.74ZM18.1818 13.1818C16.0582 13.1818 16.0828 11.7609 16.3637 9.54545C16.6446 7.33 17.5409 5.90909 18.1818 5.90909C18.8228 5.90909 19.7273 7.39455 20 9.54545C20.2727 11.6964 20.3055 13.1818 18.1818 13.1818Z" fill="white"/>
<path d="M12.2726 5H11.3635V11.3636H12.2726V5Z" fill="white"/>
</svg>
