<svg width="59" height="44" viewBox="0 0 59 44" fill="none" xmlns="http://www.w3.org/2000/svg">
<circle cx="30" cy="15" r="15" fill="#59C7C8"/>
<path d="M4.14258 32.4688V41H3.0293V32.4688H4.14258ZM6.88477 32.4688V33.3945H0.292969V32.4688H6.88477ZM8.42578 35.8789V43.4375H7.33594V34.6602H8.33203L8.42578 35.8789ZM12.6973 37.7773V37.9004C12.6973 38.3613 12.6426 38.7891 12.5332 39.1836C12.4238 39.5742 12.2637 39.9141 12.0527 40.2031C11.8457 40.4922 11.5898 40.7168 11.2852 40.877C10.9805 41.0371 10.6309 41.1172 10.2363 41.1172C9.83398 41.1172 9.47852 41.0508 9.16992 40.918C8.86133 40.7852 8.59961 40.5918 8.38477 40.3379C8.16992 40.084 7.99805 39.7793 7.86914 39.4238C7.74414 39.0684 7.6582 38.668 7.61133 38.2227V37.5664C7.6582 37.0977 7.74609 36.6777 7.875 36.3066C8.00391 35.9355 8.17383 35.6191 8.38477 35.3574C8.59961 35.0918 8.85938 34.8906 9.16406 34.7539C9.46875 34.6133 9.82031 34.543 10.2188 34.543C10.6172 34.543 10.9707 34.6211 11.2793 34.7773C11.5879 34.9297 11.8477 35.1484 12.0586 35.4336C12.2695 35.7188 12.4277 36.0605 12.5332 36.459C12.6426 36.8535 12.6973 37.293 12.6973 37.7773ZM11.6074 37.9004V37.7773C11.6074 37.4609 11.5742 37.1641 11.5078 36.8867C11.4414 36.6055 11.3379 36.3594 11.1973 36.1484C11.0605 35.9336 10.8848 35.7656 10.6699 35.6445C10.4551 35.5195 10.1992 35.457 9.90234 35.457C9.62891 35.457 9.39062 35.5039 9.1875 35.5977C8.98828 35.6914 8.81836 35.8184 8.67773 35.9785C8.53711 36.1348 8.42188 36.3145 8.33203 36.5176C8.24609 36.7168 8.18164 36.9238 8.13867 37.1387V38.6562C8.2168 38.9297 8.32617 39.1875 8.4668 39.4297C8.60742 39.668 8.79492 39.8613 9.0293 40.0098C9.26367 40.1543 9.55859 40.2266 9.91406 40.2266C10.207 40.2266 10.459 40.166 10.6699 40.0449C10.8848 39.9199 11.0605 39.75 11.1973 39.5352C11.3379 39.3203 11.4414 39.0742 11.5078 38.7969C11.5742 38.5156 11.6074 38.2168 11.6074 37.9004ZM17.8184 39.916V36.6523C17.8184 36.4023 17.7676 36.1855 17.666 36.002C17.5684 35.8145 17.4199 35.6699 17.2207 35.5684C17.0215 35.4668 16.7754 35.416 16.4824 35.416C16.209 35.416 15.9688 35.4629 15.7617 35.5566C15.5586 35.6504 15.3984 35.7734 15.2812 35.9258C15.168 36.0781 15.1113 36.2422 15.1113 36.418H14.0273C14.0273 36.1914 14.0859 35.9668 14.2031 35.7441C14.3203 35.5215 14.4883 35.3203 14.707 35.1406C14.9297 34.957 15.1953 34.8125 15.5039 34.707C15.8164 34.5977 16.1641 34.543 16.5469 34.543C17.0078 34.543 17.4141 34.6211 17.7656 34.7773C18.1211 34.9336 18.3984 35.1699 18.5977 35.4863C18.8008 35.7988 18.9023 36.1914 18.9023 36.6641V39.6172C18.9023 39.8281 18.9199 40.0527 18.9551 40.291C18.9941 40.5293 19.0508 40.7344 19.125 40.9062V41H17.9941C17.9395 40.875 17.8965 40.709 17.8652 40.502C17.834 40.291 17.8184 40.0957 17.8184 39.916ZM18.0059 37.1562L18.0176 37.918H16.9219C16.6133 37.918 16.3379 37.9434 16.0957 37.9941C15.8535 38.041 15.6504 38.1133 15.4863 38.2109C15.3223 38.3086 15.1973 38.4316 15.1113 38.5801C15.0254 38.7246 14.9824 38.8945 14.9824 39.0898C14.9824 39.2891 15.0273 39.4707 15.1172 39.6348C15.207 39.7988 15.3418 39.9297 15.5215 40.0273C15.7051 40.1211 15.9297 40.168 16.1953 40.168C16.5273 40.168 16.8203 40.0977 17.0742 39.957C17.3281 39.8164 17.5293 39.6445 17.6777 39.4414C17.8301 39.2383 17.9121 39.041 17.9238 38.8496L18.3867 39.3711C18.3594 39.5352 18.2852 39.7168 18.1641 39.916C18.043 40.1152 17.8809 40.3066 17.6777 40.4902C17.4785 40.6699 17.2402 40.8203 16.9629 40.9414C16.6895 41.0586 16.3809 41.1172 16.0371 41.1172C15.6074 41.1172 15.2305 41.0332 14.9062 40.8652C14.5859 40.6973 14.3359 40.4727 14.1562 40.1914C13.9805 39.9062 13.8926 39.5879 13.8926 39.2363C13.8926 38.8965 13.959 38.5977 14.0918 38.3398C14.2246 38.0781 14.416 37.8613 14.666 37.6895C14.916 37.5137 15.2168 37.3809 15.5684 37.291C15.9199 37.2012 16.3125 37.1562 16.7461 37.1562H18.0059ZM24.9082 37.4082V38.2871H21.5566V37.4082H24.9082ZM21.7852 34.6602V41H20.7012V34.6602H21.7852ZM25.7871 34.6602V41H24.6973V34.6602H25.7871ZM30.0703 40.2266C30.3281 40.2266 30.5664 40.1738 30.7852 40.0684C31.0039 39.9629 31.1836 39.8184 31.3242 39.6348C31.4648 39.4473 31.5449 39.2344 31.5645 38.9961H32.5957C32.5762 39.3711 32.4492 39.7207 32.2148 40.0449C31.9844 40.3652 31.6816 40.625 31.3066 40.8242C30.9316 41.0195 30.5195 41.1172 30.0703 41.1172C29.5938 41.1172 29.1777 41.0332 28.8223 40.8652C28.4707 40.6973 28.1777 40.4668 27.9434 40.1738C27.7129 39.8809 27.5391 39.5449 27.4219 39.166C27.3086 38.7832 27.252 38.3789 27.252 37.9531V37.707C27.252 37.2812 27.3086 36.8789 27.4219 36.5C27.5391 36.1172 27.7129 35.7793 27.9434 35.4863C28.1777 35.1934 28.4707 34.9629 28.8223 34.7949C29.1777 34.627 29.5938 34.543 30.0703 34.543C30.5664 34.543 31 34.6445 31.3711 34.8477C31.7422 35.0469 32.0332 35.3203 32.2441 35.668C32.459 36.0117 32.5762 36.4023 32.5957 36.8398H31.5645C31.5449 36.5781 31.4707 36.3418 31.3418 36.1309C31.2168 35.9199 31.0449 35.752 30.8262 35.627C30.6113 35.498 30.3594 35.4336 30.0703 35.4336C29.7383 35.4336 29.459 35.5 29.2324 35.6328C29.0098 35.7617 28.832 35.9375 28.6992 36.1602C28.5703 36.3789 28.4766 36.623 28.418 36.8926C28.3633 37.1582 28.3359 37.4297 28.3359 37.707V37.9531C28.3359 38.2305 28.3633 38.5039 28.418 38.7734C28.4727 39.043 28.5645 39.2871 28.6934 39.5059C28.8262 39.7246 29.0039 39.9004 29.2266 40.0332C29.4531 40.1621 29.7344 40.2266 30.0703 40.2266ZM38.0391 34.6602V35.5566H34.834V34.6602H38.0391ZM34.9922 34.6602V41H33.9082V34.6602H34.9922ZM39 34.6602V41H37.9102V34.6602H39ZM40.4531 37.9004V37.7656C40.4531 37.3086 40.5195 36.8848 40.6523 36.4941C40.7852 36.0996 40.9766 35.7578 41.2266 35.4688C41.4766 35.1758 41.7793 34.9492 42.1348 34.7891C42.4902 34.625 42.8887 34.543 43.3301 34.543C43.7754 34.543 44.1758 34.625 44.5312 34.7891C44.8906 34.9492 45.1953 35.1758 45.4453 35.4688C45.6992 35.7578 45.8926 36.0996 46.0254 36.4941C46.1582 36.8848 46.2246 37.3086 46.2246 37.7656V37.9004C46.2246 38.3574 46.1582 38.7812 46.0254 39.1719C45.8926 39.5625 45.6992 39.9043 45.4453 40.1973C45.1953 40.4863 44.8926 40.7129 44.5371 40.877C44.1855 41.0371 43.7871 41.1172 43.3418 41.1172C42.8965 41.1172 42.4961 41.0371 42.1406 40.877C41.7852 40.7129 41.4805 40.4863 41.2266 40.1973C40.9766 39.9043 40.7852 39.5625 40.6523 39.1719C40.5195 38.7812 40.4531 38.3574 40.4531 37.9004ZM41.5371 37.7656V37.9004C41.5371 38.2168 41.5742 38.5156 41.6484 38.7969C41.7227 39.0742 41.834 39.3203 41.9824 39.5352C42.1348 39.75 42.3242 39.9199 42.5508 40.0449C42.7773 40.166 43.041 40.2266 43.3418 40.2266C43.6387 40.2266 43.8984 40.166 44.1211 40.0449C44.3477 39.9199 44.5352 39.75 44.6836 39.5352C44.832 39.3203 44.9434 39.0742 45.0176 38.7969C45.0957 38.5156 45.1348 38.2168 45.1348 37.9004V37.7656C45.1348 37.4531 45.0957 37.1582 45.0176 36.8809C44.9434 36.5996 44.8301 36.3516 44.6777 36.1367C44.5293 35.918 44.3418 35.7461 44.1152 35.6211C43.8926 35.4961 43.6309 35.4336 43.3301 35.4336C43.0332 35.4336 42.7715 35.4961 42.5449 35.6211C42.3223 35.7461 42.1348 35.918 41.9824 36.1367C41.834 36.3516 41.7227 36.5996 41.6484 36.8809C41.5742 37.1582 41.5371 37.4531 41.5371 37.7656ZM48.668 35.8789V43.4375H47.5781V34.6602H48.5742L48.668 35.8789ZM52.9395 37.7773V37.9004C52.9395 38.3613 52.8848 38.7891 52.7754 39.1836C52.666 39.5742 52.5059 39.9141 52.2949 40.2031C52.0879 40.4922 51.832 40.7168 51.5273 40.877C51.2227 41.0371 50.873 41.1172 50.4785 41.1172C50.0762 41.1172 49.7207 41.0508 49.4121 40.918C49.1035 40.7852 48.8418 40.5918 48.627 40.3379C48.4121 40.084 48.2402 39.7793 48.1113 39.4238C47.9863 39.0684 47.9004 38.668 47.8535 38.2227V37.5664C47.9004 37.0977 47.9883 36.6777 48.1172 36.3066C48.2461 35.9355 48.416 35.6191 48.627 35.3574C48.8418 35.0918 49.1016 34.8906 49.4062 34.7539C49.7109 34.6133 50.0625 34.543 50.4609 34.543C50.8594 34.543 51.2129 34.6211 51.5215 34.7773C51.8301 34.9297 52.0898 35.1484 52.3008 35.4336C52.5117 35.7188 52.6699 36.0605 52.7754 36.459C52.8848 36.8535 52.9395 37.293 52.9395 37.7773ZM51.8496 37.9004V37.7773C51.8496 37.4609 51.8164 37.1641 51.75 36.8867C51.6836 36.6055 51.5801 36.3594 51.4395 36.1484C51.3027 35.9336 51.127 35.7656 50.9121 35.6445C50.6973 35.5195 50.4414 35.457 50.1445 35.457C49.8711 35.457 49.6328 35.5039 49.4297 35.5977C49.2305 35.6914 49.0605 35.8184 48.9199 35.9785C48.7793 36.1348 48.6641 36.3145 48.5742 36.5176C48.4883 36.7168 48.4238 36.9238 48.3809 37.1387V38.6562C48.459 38.9297 48.5684 39.1875 48.709 39.4297C48.8496 39.668 49.0371 39.8613 49.2715 40.0098C49.5059 40.1543 49.8008 40.2266 50.1562 40.2266C50.4492 40.2266 50.7012 40.166 50.9121 40.0449C51.127 39.9199 51.3027 39.75 51.4395 39.5352C51.5801 39.3203 51.6836 39.0742 51.75 38.7969C51.8164 38.5156 51.8496 38.2168 51.8496 37.9004ZM56.4375 34.6602V41H55.3477V34.6602H56.4375ZM58.5645 34.6602V35.5391H53.2617V34.6602H58.5645Z" fill="black"/>
</svg>
