<svg width="30" height="30" viewBox="0 0 30 30" fill="none" xmlns="http://www.w3.org/2000/svg">
<circle cx="15" cy="15" r="15" fill="#F77E73"/>
<g clip-path="url(#clip0_174_129)">
<path d="M20.8832 9.38411L18.9229 10.3725L13.5904 5.66468L8.93387 8.01264L13.0869 13.3152L10.6325 14.5528L8.26357 12.7886L4.78417 14.5431L8.78731 19.1816L10.1367 25.1582L13.6161 23.4038L13.6061 20.4501L16.0605 19.2125L17.8547 25.7045L22.5112 23.3566L21.8965 16.2698L23.8568 15.2814C25.4821 14.4619 26.1382 12.4713 25.3186 10.846C24.4991 9.22066 22.5085 8.56458 20.8832 9.38411ZM23.2621 14.102L20.5045 15.4924L21.1192 22.5792L18.6977 23.8001L16.9036 17.3081L12.2825 19.6382L12.2924 22.5919L11.054 23.2163L10.0045 18.5678L6.88978 14.9607L8.12821 14.3362L10.4971 16.1004L15.1194 13.7697L10.9664 8.46713L13.3866 7.24677L18.7191 11.9546L21.4767 10.5642C22.4521 10.0723 23.6462 10.4659 24.138 11.4413C24.6298 12.4167 24.2375 13.6101 23.2621 14.102Z" fill="white"/>
</g>
<defs>
<clipPath id="clip0_174_129">
<rect width="20" height="19.8138" fill="white" transform="translate(3 11.0047) rotate(-26.7587)"/>
</clipPath>
</defs>
</svg>
